HIERARCHY
ROOT Hips
{
	OFFSET 0.000000 0.000000 0.000000
	CHANNELS 6 Xposition Yposition Zposition Zrotation Yrotation Xrotation 
	JOINT LHipJoint
	{
		OFFSET 0.000000 0.000000 0.000000
		CHANNELS 3 Zrotation Yrotation Xrotation
		JOINT LeftUpLeg
		{
			OFFSET 1.363060 -1.794630 0.839290
			CHANNELS 3 Zrotation Yrotation Xrotation
			JOINT LeftLeg
			{
				OFFSET 2.448110 -6.726130 0.000000
				CHANNELS 3 Zrotation Yrotation Xrotation
				JOINT LeftFoot
				{
					OFFSET 2.562200 -7.039590 0.000000
					CHANNELS 3 Zrotation Yrotation Xrotation
					JOINT LeftToeBase
					{
						OFFSET 0.157640 -0.433110 2.322550
						CHANNELS 3 Zrotation Yrotation Xrotation
						End Site
						{
							OFFSET 0.000000 0.000000 0.000000
						}
					}
				}
			}
		}
	}
	JOINT RHipJoint
	{
		OFFSET 0.000000 0.000000 0.000000
		CHANNELS 3 Zrotation Yrotation Xrotation
		JOINT RightUpLeg
		{
			OFFSET -1.305520 -1.794630 0.839290
			CHANNELS 3 Zrotation Yrotation Xrotation
			JOINT RightLeg
			{
				OFFSET -2.542530 -6.985550 0.000000
				CHANNELS 3 Zrotation Yrotation Xrotation
				JOINT RightFoot
				{
					OFFSET -2.568260 -7.056230 0.000000
					CHANNELS 3 Zrotation Yrotation Xrotation
					JOINT RightToeBase
					{
						OFFSET -0.164730 -0.452590 2.363150
						CHANNELS 3 Zrotation Yrotation Xrotation
						End Site
						{
							OFFSET 0.000000 0.000000 0.000000
						}
					}
				}
			}
		}
	}
	JOINT LowerBack
	{
		OFFSET 0.000000 0.000000 0.000000
		CHANNELS 3 Zrotation Yrotation Xrotation
		JOINT Spine
		{
			OFFSET 0.028270 2.035590 -0.193380
			CHANNELS 3 Zrotation Yrotation Xrotation
			JOINT Spine1
			{
				OFFSET 0.056720 2.048850 -0.042750
				CHANNELS 3 Zrotation Yrotation Xrotation
				JOINT Neck
				{
					OFFSET 0.000000 0.000000 0.000000
					CHANNELS 3 Zrotation Yrotation Xrotation
					JOINT Neck1
					{
						OFFSET -0.054170 1.746240 0.172020
						CHANNELS 3 Zrotation Yrotation Xrotation
						JOINT Head
						{
							OFFSET 0.104070 1.761360 -0.123970
							CHANNELS 3 Zrotation Yrotation Xrotation
							End Site
							{
								OFFSET 0.000000 0.000000 0.000000
							}
						}
					}
				}
				JOINT LeftShoulder
				{
					OFFSET 0.000000 0.000000 0.000000
					CHANNELS 3 Zrotation Yrotation Xrotation
					JOINT LeftArm
					{
						OFFSET 3.362410 1.200890 -0.311210
						CHANNELS 3 Zrotation Yrotation Xrotation
						JOINT LeftForeArm
						{
							OFFSET 4.983000 -0.000000 -0.000000
							CHANNELS 3 Zrotation Yrotation Xrotation
							JOINT LeftHand
							{
								OFFSET 3.483560 -0.000000 -0.000000
								CHANNELS 3 Zrotation Yrotation Xrotation
								JOINT LeftFingerBase
								{
									OFFSET 0.000000 0.000000 0.000000
									CHANNELS 3 Zrotation Yrotation Xrotation
									JOINT LeftHandIndex1
									{
										OFFSET 0.715260 -0.000000 -0.000000
										CHANNELS 3 Zrotation Yrotation Xrotation
										End Site
										{
											OFFSET 0.000000 0.000000 0.000000
										}
									}
								}
								JOINT LThumb
								{
									OFFSET 0.000000 0.000000 0.000000
									CHANNELS 3 Zrotation Yrotation Xrotation
									End Site
									{
										OFFSET 0.000000 0.000000 0.000000
									}
								}
							}
						}
					}
				}
				JOINT RightShoulder
				{
					OFFSET 0.000000 0.000000 0.000000
					CHANNELS 3 Zrotation Yrotation Xrotation
					JOINT RightArm
					{
						OFFSET -3.136600 1.374050 -0.404650
						CHANNELS 3 Zrotation Yrotation Xrotation
						JOINT RightForeArm
						{
							OFFSET -5.241900 -0.000000 -0.000000
							CHANNELS 3 Zrotation Yrotation Xrotation
							JOINT RightHand
							{
								OFFSET -3.444170 -0.000000 -0.000000
								CHANNELS 3 Zrotation Yrotation Xrotation
								JOINT RightFingerBase
								{
									OFFSET 0.000000 0.000000 0.000000
									CHANNELS 3 Zrotation Yrotation Xrotation
									JOINT RightHandIndex1
									{
										OFFSET -0.622530 -0.000000 -0.000000
										CHANNELS 3 Zrotation Yrotation Xrotation
										End Site
										{
											OFFSET 0.000000 0.000000 0.000000
										}
									}
								}
								JOINT RThumb
								{
									OFFSET 0.000000 0.000000 0.000000
									CHANNELS 3 Zrotation Yrotation Xrotation
									End Site
									{
										OFFSET 0.000000 0.000000 0.000000
									}
								}
							}
						}
					}
				}
			}
		}
	}
}
MOTION
Frames: 11
Frame Time: 0.008333
25.759886 15.905249 4.285175 -112.473614 -88.872947 136.401156 -12.168318 3.829919 0.118141 -2.153525 10.242150 5.629698 -1.747339 -0.961142 2.810692 0.569220 3.804833 -4.707449 0.105500 -0.000000 -71.125400 7.277534 -0.484490 6.490788 4.784201 11.697124 -65.793977 2.033440 -2.385170 35.715431 -0.891736 -1.009970 -8.813940 -0.311500 0.000001 -26.211200 5.856604 -3.445072 -5.858198 0.543271 -4.210912 -4.184418 -7.544650 -4.373975 0.286317 9.183067 -5.785076 -6.932902 -4.015593 -0.307893 0.157426 0.000000 0.000000 0.000000 -4.807299 -1.458678 2.835574 -53.153689 -25.766585 19.295827 -2.520188 -49.476331 -0.027218 7.160529 -0.714257 -0.061128 -0.188052 0.267053 -0.000000 0.000000 0.000000 0.000000 0.000000 0.000000 0.000000 16.707217 -5.382224 2.849876 60.509831 -8.159994 -20.425824 3.866604 2.022163 0.001143 -6.241077 3.730585 -0.212265 0.142757 -0.075744 -0.000000 0.000000 0.000000 0.000000 0.000000 0.000000 0.000000 
25.525065 15.909997 4.253654 -108.463838 -88.703433 132.506436 -12.303157 3.933145 0.243186 -1.726871 9.731652 5.557746 -1.545616 -0.765561 3.927455 0.633411 4.753242 -2.861426 0.323600 -0.000000 -74.466499 7.123435 -0.576361 6.530966 4.917318 12.484505 -65.637617 1.819334 -2.473069 37.302868 -1.132209 -1.924644 -9.380814 -0.319300 -0.000001 -24.154600 6.249458 -3.419979 -6.056461 0.623030 -4.230175 -4.232593 -7.529972 -4.394646 0.257842 9.094562 -5.595800 -6.948970 -4.032085 -0.309160 0.154062 0.000000 0.000000 0.000000 -4.958052 -1.371055 2.843772 -53.221045 -25.131744 19.240108 -2.513021 -49.536342 -0.027796 7.373631 -0.751339 -0.065328 -0.188736 0.264886 -0.000000 0.000000 0.000000 0.000000 0.000000 0.000000 0.000000 16.630312 -5.179768 2.862664 60.334285 -7.706535 -20.289967 3.840305 1.782879 0.000256 -6.855482 3.716285 -0.231969 0.144322 -0.076900 -0.000000 0.000000 0.000000 0.000000 0.000000 0.000000 0.000000 
25.288077 15.920757 4.221713 -105.995131 -88.487984 130.139009 -12.442001 4.025602 0.353396 -1.291495 9.249525 5.343645 -1.319999 -0.553118 5.296389 0.713222 5.753374 -0.793098 0.618600 -0.000000 -77.558300 6.967977 -0.676732 6.567873 5.135504 13.258656 -65.361690 1.636198 -2.538372 38.680016 -1.368095 -2.820427 -9.942144 -0.310800 0.000000 -22.228900 6.671119 -3.383237 -6.233462 0.708230 -4.240515 -4.277864 -7.518490 -4.406555 0.225122 9.009312 -5.367110 -6.960490 -4.051736 -0.310660 0.151277 0.000000 0.000000 0.000000 -5.154013 -1.248661 2.857438 -53.337422 -24.443275 19.179823 -2.513144 -49.471816 -0.028351 7.606117 -0.774699 -0.068735 -0.189240 0.261538 -0.000000 0.000000 0.000000 0.000000 0.000000 0.000000 0.000000 16.561893 -4.931955 2.871793 60.215778 -7.204958 -20.103010 3.812592 1.609563 -0.000607 -7.464501 3.723659 -0.252874 0.145674 -0.078084 -0.000000 0.000000 0.000000 0.000000 0.000000 0.000000 0.000000 
25.049333 15.937535 4.188099 -104.932031 -88.263238 129.164970 -12.571216 4.106876 0.450442 -0.895546 8.798111 4.957751 -1.074525 -0.329623 6.953997 0.811150 6.782953 1.487345 0.997001 -0.000000 -80.143400 6.828781 -0.778770 6.599089 5.406836 13.967823 -64.974675 1.486448 -2.585896 39.837671 -1.583907 -3.632557 -10.489534 -0.284300 0.000001 -20.623000 7.074144 -3.339412 -6.391158 0.788816 -4.242601 -4.320627 -7.510810 -4.410475 0.186572 8.939239 -5.112340 -6.962930 -4.075725 -0.312548 0.150511 0.000000 0.000000 0.000000 -5.360500 -1.127258 2.871545 -53.516510 -23.666610 19.091451 -2.517201 -49.285527 -0.028856 7.858837 -0.788791 -0.071752 -0.189214 0.256955 -0.000000 0.000000 0.000000 0.000000 0.000000 0.000000 0.000000 16.522467 -4.657997 2.876699 60.159024 -6.655459 -19.828542 3.784110 1.508408 -0.001411 -8.048898 3.750140 -0.274375 0.146750 -0.079164 -0.000000 0.000000 0.000000 0.000000 0.000000 0.000000 0.000000 
24.810102 15.960498 4.153223 -104.720834 -88.027419 129.019634 -12.695566 4.169672 0.528269 -0.525432 8.423228 4.376136 -0.812568 -0.102016 8.935857 0.925382 7.776609 3.942594 1.448900 0.000000 -81.958900 6.705223 -0.885206 6.620569 5.745293 14.598220 -64.451247 1.376575 -2.616888 40.751318 -1.770207 -4.320451 -11.024606 -0.240200 -0.000000 -19.326700 7.462780 -3.287135 -6.520683 0.864855 -4.234632 -4.358784 -7.507313 -4.404359 0.144866 8.881652 -4.828540 -6.954784 -4.103898 -0.314803 0.152134 0.000000 0.000000 0.000000 -5.590023 -0.991064 2.887212 -53.745966 -22.845745 18.997082 -2.526429 -48.953460 -0.029327 8.140965 -0.794618 -0.074278 -0.188782 0.251136 0.000000 0.000000 0.000000 0.000000 0.000000 0.000000 0.000000 16.510267 -4.354322 2.875241 60.167197 -6.058107 -19.511801 3.755837 1.465219 -0.002082 -8.581239 3.815203 -0.297374 0.147485 -0.080263 -0.000000 0.000000 0.000000 0.000000 0.000000 0.000000 0.000000 
24.570853 15.989508 4.116839 -105.165160 -87.788572 129.508822 -12.810362 4.207193 0.589275 -0.198449 8.124185 3.583384 -0.539650 0.119410 11.258126 1.057192 8.702023 6.504208 1.955101 -0.000000 -82.731200 6.603556 -0.993949 6.630541 6.141335 15.131772 -63.785641 1.308323 -2.633371 41.413561 -1.918625 -4.848616 -11.545042 -0.181200 -0.000000 -18.377600 7.822593 -3.226066 -6.622983 0.932945 -4.214892 -4.392043 -7.508035 -4.386426 0.101549 8.838522 -4.520840 -6.933999 -4.136256 -0.317446 0.156806 0.000000 0.000000 0.000000 -5.832431 -0.844748 2.902605 -54.026764 -21.991821 18.898565 -2.539958 -48.464446 -0.029739 8.453731 -0.793972 -0.076616 -0.187813 0.244087 0.000000 0.000000 0.000000 0.000000 0.000000 0.000000 0.000000 16.529783 -4.027407 2.866370 60.242034 -5.408864 -19.176887 3.728019 1.466866 -0.002577 -9.040875 3.929484 -0.322371 0.147829 -0.081449 -0.000000 0.000000 0.000000 0.000000 0.000000 0.000000 0.000000 
24.332655 16.024350 4.078199 -106.294507 -87.566948 130.665960 -12.901338 4.214295 0.641562 0.036192 7.859030 2.575666 -0.265309 0.323350 13.917053 1.209033 9.561351 9.072123 2.494300 -0.000000 -82.202200 6.536559 -1.096967 6.627412 6.561285 15.543227 -62.991149 1.278963 -2.637946 41.837425 -2.022079 -5.186425 -12.050951 -0.110300 0.000000 -17.775000 8.119122 -3.157101 -6.704667 0.985660 -4.181535 -4.421332 -7.513224 -4.354879 0.055852 8.818526 -4.206019 -6.898949 -4.173354 -0.320568 0.165219 0.000000 0.000000 0.000000 -6.054255 -0.716438 2.913395 -54.373972 -21.084540 18.776581 -2.554816 -47.819859 -0.030035 8.790699 -0.791504 -0.078865 -0.185946 0.235860 0.000000 0.000000 0.000000 0.000000 0.000000 0.000000 0.000000 16.596097 -3.695353 2.850623 60.386005 -4.717521 -18.731724 3.702165 1.549528 -0.002931 -9.422833 4.055070 -0.346364 0.147856 -0.082425 -0.000000 0.000000 0.000000 0.000000 0.000000 0.000000 0.000000 
24.096185 16.064715 4.038215 -107.823076 -87.345109 132.207440 -12.973011 4.182541 0.684984 0.193917 7.629802 1.352672 -0.001022 0.501715 16.905508 1.375822 10.321488 11.514070 3.027700 -0.000000 -80.225500 6.496512 -1.198023 6.612838 7.016818 15.850918 -62.055853 1.288961 -2.628997 42.013916 -2.082542 -5.341856 -12.537897 -0.033400 0.000000 -17.459700 8.373932 -3.076956 -6.766057 1.027617 -4.132923 -4.445757 -7.520847 -4.307906 0.012791 8.810370 -3.876167 -6.850580 -4.213114 -0.323979 0.177064 0.000000 0.000000 0.000000 -6.273874 -0.574315 2.921611 -54.774497 -20.181707 18.661027 -2.572920 -46.998743 -0.030204 9.151710 -0.785199 -0.080926 -0.183336 0.226567 0.000000 0.000000 0.000000 0.000000 0.000000 0.000000 0.000000 16.689159 -3.347712 2.826550 60.599888 -3.963203 -18.334832 3.676685 1.642457 -0.003053 -9.699844 4.246668 -0.373055 0.147434 -0.083694 -0.000000 0.000000 0.000000 0.000000 0.000000 0.000000 0.000000 
23.861954 16.110101 3.996490 -109.849299 -87.134815 134.236137 -13.013349 4.112600 0.724600 0.234775 7.397045 -0.077015 0.237451 0.651135 20.192647 1.551920 10.996511 13.690158 3.527700 0.000000 -76.785800 6.490870 -1.289894 6.588339 7.474451 16.048258 -61.001345 1.332253 -2.607214 41.967203 -2.100830 -5.316941 -13.006360 0.045000 0.000000 -17.384500 8.563596 -2.986211 -6.814186 1.054291 -4.067844 -4.466239 -7.529290 -4.244359 -0.027765 8.816807 -3.545653 -6.789375 -4.254663 -0.327639 0.192405 0.000000 0.000000 0.000000 -6.463596 -0.438334 2.924130 -55.241719 -19.268404 18.533981 -2.591624 -46.008352 -0.030186 9.523566 -0.777906 -0.082798 -0.179684 0.216361 0.000000 0.000000 0.000000 0.000000 0.000000 0.000000 0.000000 16.810949 -2.998500 2.795766 60.885160 -3.141898 -17.950980 3.651734 1.751832 -0.002979 -9.869473 4.483556 -0.400443 0.146603 -0.085171 -0.000000 0.000000 0.000000 0.000000 0.000000 0.000000 0.000000 
23.630492 16.159979 3.953816 -112.246296 -86.922784 136.632599 -13.024647 4.007266 0.757735 0.166647 7.161914 -1.704403 0.437581 0.775881 23.735323 1.726224 11.581152 15.473356 3.963200 0.000000 -72.088500 6.512907 -1.373305 6.558160 7.930634 16.159275 -59.834389 1.404532 -2.570359 41.705984 -2.084768 -5.143766 -13.453155 0.119900 0.000000 -17.475901 8.697722 -2.881181 -6.850688 1.067460 -3.983372 -4.483075 -7.538080 -4.161239 -0.065481 8.836194 -3.225594 -6.718704 -4.297591 -0.331500 0.210346 0.000000 0.000000 0.000000 -6.614251 -0.308919 2.920400 -55.785670 -18.356262 18.389594 -2.610357 -44.849650 -0.029942 9.891845 -0.770696 -0.084482 -0.174912 0.205469 0.000000 0.000000 0.000000 0.000000 0.000000 0.000000 0.000000 16.959761 -2.653122 2.759631 61.239382 -2.290610 -17.367817 3.630834 1.993868 -0.002877 -9.952694 4.657565 -0.419229 0.145682 -0.086204 -0.000000 0.000000 0.000000 0.000000 0.000000 0.000000 0.000000 
23.402708 16.213780 3.910319 -115.120110 -86.707066 139.494915 -13.004000 3.876474 0.780135 -0.023292 6.920088 -3.495837 0.592651 0.886516 27.459922 1.889474 12.100197 16.782985 4.322900 -0.000000 -66.552400 6.562368 -1.443764 6.521959 8.365725 16.194467 -58.562138 1.498800 -2.518025 41.258818 -2.041393 -4.850584 -13.884183 0.188999 0.000000 -17.652600 8.773626 -2.764350 -6.871180 1.067754 -3.881064 -4.495091 -7.542715 -4.060244 -0.099499 8.855002 -2.884216 -6.634066 -4.338552 -0.335306 0.231967 0.000000 0.000000 0.000000 -6.738313 -0.161204 2.915173 -56.382115 -17.477436 18.250585 -2.630255 -43.530416 -0.029469 10.241046 -0.751372 -0.084674 -0.169222 0.194084 0.000000 0.000000 0.000000 0.000000 0.000000 0.000000 0.000000 17.104381 -2.279423 2.718852 61.669423 -1.345948 -17.076704 3.606489 2.133639 -0.002485 -9.888967 4.962054 -0.443412 0.144018 -0.088364 -0.000000 0.000000 0.000000 0.000000 0.000000 0.000000 0.000000 
